<svg width="100" height="100" viewBox="0 0 100 100" fill="none" xmlns="http://www.w3.org/2000/svg">
<rect width="100" height="100" fill="#1E1E1E"/>
<rect width="100" height="100" fill="#A238E4"/>
<path fill-rule="evenodd" clip-rule="evenodd" d="M17.9644 41.22C17.9644 33.3273 20.1453 27.6592 23.7969 23.9608C27.4485 20.2624 33.045 18.0535 40.8379 18.0535C48.6307 18.0535 54.2272 20.2624 57.8788 23.9608C61.5304 27.6592 63.7114 33.3273 63.7114 41.22C63.7114 42.3624 63.6654 43.4598 63.5756 44.5122C63.41 46.4528 64.829 48.1619 66.745 48.3296C68.661 48.4973 70.3486 47.0601 70.5141 45.1195C70.6222 43.8542 70.6757 42.5538 70.6757 41.22C70.6757 32.029 68.1128 24.3505 62.8034 18.9732C57.494 13.5959 49.9127 11 40.8379 11C31.7631 11 24.1817 13.5959 18.8724 18.9732C13.5631 24.3505 11 32.029 11 41.22C11 48.1713 12.461 54.2575 15.4925 59.1591C18.549 64.1011 23.0655 67.6123 28.7455 69.576C30.5655 70.2058 32.5446 69.2216 33.166 67.3781C33.7873 65.5347 32.8156 63.5303 30.9956 62.901C26.7213 61.4231 23.5436 58.8893 21.3945 55.4146C19.2205 51.8995 17.9644 47.1974 17.9644 41.22ZM40.8679 32.9624C40.7962 32.9624 40.725 32.9602 40.6543 32.9559C38.7049 32.9882 37.7109 33.4616 37.2762 33.8081C36.9174 34.0939 36.7327 34.4401 36.7327 35.0287C36.7327 35.0414 36.7327 35.0815 36.7787 35.1679C36.8303 35.2646 36.9615 35.4568 37.2686 35.7002C37.9048 36.2041 39.1725 36.8222 41.3595 37.1386C44.1052 37.5359 46.8801 38.2412 49.0517 39.6293C51.4106 41.1373 53.13 43.5328 53.13 46.8326C53.13 49.8959 51.466 52.4194 49.2214 54.0484C47.8296 55.0585 46.1674 55.7755 44.344 56.1732C44.2366 58.0231 42.7213 59.4897 40.8679 59.4897C39.0285 59.4897 37.5222 58.0453 37.3945 56.2154C35.6484 55.8761 34.0381 55.2683 32.6697 54.3852C30.401 52.9211 28.6041 50.5216 28.6041 47.4104C28.6041 45.4627 30.1631 43.8836 32.0863 43.8836C34.0094 43.8836 35.5684 45.4627 35.5684 47.4104C35.5684 47.4991 35.581 47.9003 36.4123 48.4368C37.2728 48.9921 38.7754 49.4849 40.867 49.4849C42.848 49.4849 44.3021 48.9411 45.1648 48.3149C46.0202 47.6942 46.1657 47.1281 46.1657 46.8326C46.1657 46.4003 46.0755 46.0678 45.3346 45.5942C44.4061 45.0007 42.7906 44.4708 40.3746 44.1212C34.7911 43.3134 29.7683 40.3189 29.7683 35.0287C29.7683 32.4391 30.811 29.9846 32.9701 28.2644C34.2199 27.2686 35.7221 26.6129 37.3933 26.2501C37.5125 24.4117 39.0225 22.958 40.8679 22.958C42.718 22.958 44.2312 24.4193 44.3434 26.2646C46.035 26.6449 47.542 27.3286 48.7885 28.3402C50.899 30.0531 51.9657 32.4794 51.9657 35.0287C51.9657 36.9765 50.4067 38.5554 48.4835 38.5554C46.5604 38.5554 45.0014 36.9765 45.0014 35.0287C45.0014 34.5494 44.8407 34.1751 44.4334 33.8445C43.9811 33.4773 42.9831 32.9899 41.0793 32.956C41.0094 32.9603 40.9388 32.9624 40.8679 32.9624ZM36.6855 88.6014L36.6914 88.5935L36.7153 88.5613L36.8161 88.4282C36.9063 88.3097 37.0415 88.1325 37.2168 87.9051C37.5677 87.4508 38.0783 86.798 38.7097 86.0147C39.9763 84.4432 41.7119 82.3666 43.6084 80.3166C45.5228 78.2479 47.517 76.2983 49.304 74.9203C50.1984 74.2308 50.9534 73.7528 51.5497 73.4701C51.8859 73.3104 52.0964 73.2489 52.1998 73.2241C52.2717 73.2805 52.3959 73.3973 52.576 73.6259C53.0528 74.2302 53.479 75.0405 54.096 76.2137L54.1937 76.3993L54.2258 76.4603C54.7698 77.4946 55.6049 79.0819 56.7746 80.2077C57.4345 80.8425 58.3502 81.4869 59.5516 81.7691C60.7916 82.0602 62.0059 81.8876 63.1008 81.4288C63.8805 81.1021 64.7475 80.5028 65.449 79.9904C66.2444 79.4092 67.1807 78.6711 68.1936 77.8422C70.2244 76.181 72.6775 74.0604 75.1407 71.8845C75.88 71.2316 76.6221 70.572 77.357 69.9157L81.232 74.4988C82.017 75.4271 83.2204 75.8774 84.4127 75.6895C85.6056 75.501 86.6168 74.7008 87.0854 73.5745C89.075 68.7951 89.5614 62.4356 88.3211 57.4026C88.0559 56.3256 87.3055 55.4379 86.2953 55.0067C81.5763 52.9916 75.2972 52.4994 70.328 53.755C69.1569 54.0509 68.2209 54.9398 67.8537 56.1041C67.4866 57.2685 67.7412 58.5424 68.5262 59.4708L72.8268 64.5572C72.0763 65.2277 71.3181 65.902 70.5631 66.5687C68.1239 68.7228 65.747 70.7763 63.8171 72.3551C62.8499 73.1468 62.0235 73.7957 61.3738 74.2703C61.2774 74.3408 61.1892 74.404 61.1087 74.461C60.9137 74.1445 60.6653 73.7009 60.3394 73.0813L60.1791 72.7755C59.6504 71.7643 58.9228 70.3717 58.0185 69.2245C56.9768 67.9035 55.3001 66.3809 52.7943 66.1749C51.2215 66.0455 49.7532 66.5331 48.5949 67.0827C47.3925 67.6535 46.2029 68.4463 45.0854 69.308C42.8484 71.033 40.5489 73.3082 38.5267 75.4937C36.4868 77.6983 34.6431 79.9058 33.3144 81.5546C32.6483 82.3807 32.1073 83.0726 31.731 83.5601C31.5428 83.8039 31.3954 83.9968 31.294 84.13L31.1769 84.2852L31.1452 84.3275L31.1363 84.3394L31.1326 84.3444C31.1323 84.3444 31.132 84.345 33.909 86.4729L31.1326 84.3444C29.9723 85.8979 30.2743 88.1099 31.8079 89.2853C33.3414 90.4607 35.5251 90.1543 36.6855 88.6014Z" fill="#F7FF00"/>
</svg>
